<svg xmlns="http://www.w3.org/2000/svg" viewBox="0 0 447.83 443.63"><defs><style>.cls-1{fill:#e49632;}</style></defs><title>Asset 1</title><g id="Layer_2" data-name="Layer 2"><g id="Layer_1-2" data-name="Layer 1"><g id="cw6PlR.tif"><path class="cls-1" d="M81,0H366.71a8.37,8.37,0,0,0,1.56.77,85.28,85.28,0,0,1,15.08,5.81A113.54,113.54,0,0,1,426.08,42c12.92,17.47,20.28,37.06,21.27,58.64.84,18.18.31,36.44.32,54.66q0,83.9,0,167.78c0,9.65-.08,19.26-1.86,28.84a107.23,107.23,0,0,1-23.56,50.44c-22.39,26.58-51,40.72-85.92,41.11-19.14.21-38.29,0-57.43,0-53.93,0-107.86-.08-161.79.1-14.44,0-28.58-1.46-42.18-6.32a111.79,111.79,0,0,1-56.06-43.7A108.07,108.07,0,0,1,.09,332.09c0-19.3,0-38.61,0-57.92q0-80.9-.08-161.79c0-12.06,1-23.93,4.38-35.51A110.27,110.27,0,0,1,30.23,31.64a112.43,112.43,0,0,1,36.2-26C71.2,3.49,76.22,2,81,0ZM415.61,219.83h0c0-28.71.13-57.43-.06-86.15-.08-12.29.84-24.62-.82-36.9a76.15,76.15,0,0,0-12.89-33.91c-16-22.88-38.3-34.22-66.1-34.82-8.4-.19-16.81-.06-25.22-.06H186.69Q149,28,111.27,28a73.71,73.71,0,0,0-32.38,7.11C48.2,50.06,32.77,75,32.21,108.92c-.38,22.71-.09,45.44-.09,68.17,0,41.61-.11,83.23.05,124.85,0,13.47-.89,27,.78,40.41a75.13,75.13,0,0,0,12.86,34.17c16.09,23.06,38.53,34.63,66.54,34.9,29.63.28,59.27.07,88.9.08,36.87,0,73.74.11,110.62,0,11.55,0,23.12.73,34.66-.78a76.25,76.25,0,0,0,34.16-12.92c22.85-15.89,34.51-38.13,34.81-65.81C415.91,294.58,415.61,257.21,415.61,219.83Z"/><path class="cls-1" d="M111.93,219.66c-.11-61.43,50.91-112.41,113-111.88,60.5.51,111.38,50.64,110.94,112.93-.43,60.57-50.91,112.09-114.1,111C161.85,330.62,111.84,281,111.93,219.66Zm191.8.17c-.25-44.35-35.11-79.74-79.65-79.88a79.29,79.29,0,0,0-80,79.72c0,44.79,35.48,79.68,79.59,79.9A79.71,79.71,0,0,0,303.73,219.83Z"/><path class="cls-1" d="M383.74,92c0,17.35-14.62,31.88-32,31.87s-32-14.6-32-31.92A32.3,32.3,0,0,1,352,59.87C369.35,59.92,383.75,74.52,383.74,92Z"/></g></g></g></svg>