<svg xmlns="http://www.w3.org/2000/svg" viewBox="0 0 511.51 389.66"><defs><style>.cls-1{fill:#e49632;}</style></defs><title>Asset 2</title><g id="Layer_2" data-name="Layer 2"><g id="Layer_1-2" data-name="Layer 1"><g id="xVjnnQ.tif"><path class="cls-1" d="M511.51,39.51V350.14c-1.18,2.24-1.14,4.81-1.89,7.19a45.68,45.68,0,0,1-13,20.54c-9.29,8.41-20.34,11.81-32.71,11.79q-61.19-.09-122.37,0H154q-53.7,0-107.38,0c-9.83,0-19.07-2.32-27-8.06C6.65,372.3,0,359.54,0,343.5Q0,194.82,0,46.14a48.1,48.1,0,0,1,2-14A44.54,44.54,0,0,1,20.16,7.6C28.21,2.15,37.38,0,47.09,0Q148.34,0,249.61,0,357,0,464.37,0c8.52,0,16.63,1.64,24.14,6a44.32,44.32,0,0,1,20.33,24.25C509.93,33.28,510.38,36.49,511.51,39.51ZM51.74,30.05c1,1.14,1.46,1.7,2,2.21C58.3,36.85,62.87,41.44,67.48,46q45.48,45,91,90.07,48.12,47.68,96.19,95.42c1.67,1.67,2.59,1.56,4.18-.05q21.18-21.34,42.5-42.56l88.28-88.19Q416,74.33,442.37,47.94q7.85-7.86,15.65-15.76c.48-.49,1.49-.92,1.1-1.73s-1.36-.3-2.07-.36-1.66,0-2.49,0H346.42l-135.87,0H51.74Zm204,329.52q100.26,0,200.53,0c.95,0,2.39.52,2.77-.37.45-1.09-1-1.73-1.71-2.44q-30.08-30.09-60.2-60.15-39.18-39.16-78.29-78.4c-1.76-1.77-2.7-1.6-4.38.08q-22.94,23.1-46.07,46c-7.52,7.45-15.76,7.49-23.27.1Q221.42,241,197.9,217.47c-1.78-1.78-2.74-1.8-4.54,0q-28.85,29-57.85,57.92L53.63,357.28c-.55.55-1.62,1-1.22,1.92.33.74,1.36.27,2.07.36a10.41,10.41,0,0,0,1.25,0ZM30,194.67h0q0,51,0,102.09,0,19.35,0,38.69c0,.62-.35,1.49.4,1.8s1.09-.56,1.59-.95a6.62,6.62,0,0,0,.53-.53q69.78-69.76,139.6-139.5c1.74-1.73,1.67-2.67,0-4.33q-19-18.6-37.81-37.36L84.2,104.91q-26-25.72-51.94-51.43c-.53-.53-.95-1.68-1.9-1.18-.71.36-.32,1.37-.32,2.09Q30,124.53,30,194.67ZM481.52,337.59v-3.47q0-49.92,0-99.84,0-89.37,0-178.73c0-1,.5-2.64-.38-3-1.14-.5-1.85,1.08-2.61,1.83q-25.25,25.2-50.44,50.46-43.67,43.63-87.36,87.26c-2.75,2.74-2.76,2.74.08,5.57q23,23,46.07,46,45.94,46,91.89,91.91A5.75,5.75,0,0,0,481.52,337.59Z"/></g></g></g></svg>
